G04*
G04 #@! TF.GenerationSoftware,Altium Limited,Altium Designer,24.4.1 (13)*
G04*
G04 Layer_Physical_Order=1*
G04 Layer_Color=255*
%FSLAX44Y44*%
%MOMM*%
G71*
G04*
G04 #@! TF.SameCoordinates,B4241BF7-B4BF-4A5F-9E04-4B0AE47491D2*
G04*
G04*
G04 #@! TF.FilePolarity,Positive*
G04*
G01*
G75*
G04:AMPARAMS|DCode=13|XSize=2.54mm|YSize=1mm|CornerRadius=0.25mm|HoleSize=0mm|Usage=FLASHONLY|Rotation=0.000|XOffset=0mm|YOffset=0mm|HoleType=Round|Shape=RoundedRectangle|*
%AMROUNDEDRECTD13*
21,1,2.5400,0.5000,0,0,0.0*
21,1,2.0400,1.0000,0,0,0.0*
1,1,0.5000,1.0200,-0.2500*
1,1,0.5000,-1.0200,-0.2500*
1,1,0.5000,-1.0200,0.2500*
1,1,0.5000,1.0200,0.2500*
%
%ADD13ROUNDEDRECTD13*%
%ADD14R,1.2000X3.5000*%
G04:AMPARAMS|DCode=15|XSize=1.2mm|YSize=3.5mm|CornerRadius=0.3mm|HoleSize=0mm|Usage=FLASHONLY|Rotation=0.000|XOffset=0mm|YOffset=0mm|HoleType=Round|Shape=RoundedRectangle|*
%AMROUNDEDRECTD15*
21,1,1.2000,2.9000,0,0,0.0*
21,1,0.6000,3.5000,0,0,0.0*
1,1,0.6000,0.3000,-1.4500*
1,1,0.6000,-0.3000,-1.4500*
1,1,0.6000,-0.3000,1.4500*
1,1,0.6000,0.3000,1.4500*
%
%ADD15ROUNDEDRECTD15*%
%ADD22C,1.0000*%
%ADD23C,2.0000*%
%ADD24R,1.5000X1.5000*%
%ADD25C,1.5000*%
%ADD26C,4.0000*%
D13*
X425000Y150000D02*
D03*
Y170000D02*
D03*
Y190000D02*
D03*
X195000Y150000D02*
D03*
Y170000D02*
D03*
Y190000D02*
D03*
D14*
X450000Y255000D02*
D03*
X475400D02*
D03*
X170000D02*
D03*
X195400D02*
D03*
D15*
X424600D02*
D03*
X144600D02*
D03*
D22*
X449000Y254000D02*
X450000Y255000D01*
X445000Y182300D02*
Y229038D01*
X449000Y233038D02*
Y254000D01*
X445000Y229038D02*
X449000Y233038D01*
X432700Y170000D02*
X445000Y182300D01*
X155000Y180000D02*
Y233100D01*
X185000Y150000D02*
X195000D01*
X155000Y180000D02*
X185000Y150000D01*
X145000Y243100D02*
X155000Y233100D01*
X474400Y254000D02*
X475400Y255000D01*
X474400Y239400D02*
Y254000D01*
X460000Y177300D02*
Y225000D01*
X474400Y239400D01*
X432700Y150000D02*
X460000Y177300D01*
X425000Y170000D02*
X432700D01*
X424800Y254800D02*
X425000Y255000D01*
X424800Y190000D02*
Y254800D01*
Y190000D02*
X425000D01*
X170000Y218090D02*
X173158Y214932D01*
X170000Y218090D02*
Y255000D01*
X173158Y184142D02*
X187300Y170000D01*
X173158Y184142D02*
Y214932D01*
X187300Y170000D02*
X195000D01*
D23*
X195400Y195000D02*
Y255000D01*
D24*
X423800Y265000D02*
D03*
X144600D02*
D03*
D25*
X449200D02*
D03*
X474600D02*
D03*
X170000D02*
D03*
X195400D02*
D03*
D26*
X470000Y140000D02*
D03*
X150000D02*
D03*
M02*
