G04*
G04 #@! TF.GenerationSoftware,Altium Limited,Altium Designer,24.4.1 (13)*
G04*
G04 Layer_Color=8388736*
%FSLAX44Y44*%
%MOMM*%
G71*
G04*
G04 #@! TF.SameCoordinates,B4241BF7-B4BF-4A5F-9E04-4B0AE47491D2*
G04*
G04*
G04 #@! TF.FilePolarity,Negative*
G04*
G01*
G75*
G04:AMPARAMS|DCode=16|XSize=2.64mm|YSize=1.1mm|CornerRadius=0.3mm|HoleSize=0mm|Usage=FLASHONLY|Rotation=0.000|XOffset=0mm|YOffset=0mm|HoleType=Round|Shape=RoundedRectangle|*
%AMROUNDEDRECTD16*
21,1,2.6400,0.5000,0,0,0.0*
21,1,2.0400,1.1000,0,0,0.0*
1,1,0.6000,1.0200,-0.2500*
1,1,0.6000,-1.0200,-0.2500*
1,1,0.6000,-1.0200,0.2500*
1,1,0.6000,1.0200,0.2500*
%
%ADD16ROUNDEDRECTD16*%
%ADD17R,1.3000X3.6000*%
G04:AMPARAMS|DCode=18|XSize=1.3mm|YSize=3.6mm|CornerRadius=0.35mm|HoleSize=0mm|Usage=FLASHONLY|Rotation=0.000|XOffset=0mm|YOffset=0mm|HoleType=Round|Shape=RoundedRectangle|*
%AMROUNDEDRECTD18*
21,1,1.3000,2.9000,0,0,0.0*
21,1,0.6000,3.6000,0,0,0.0*
1,1,0.7000,0.3000,-1.4500*
1,1,0.7000,-0.3000,-1.4500*
1,1,0.7000,-0.3000,1.4500*
1,1,0.7000,0.3000,1.4500*
%
%ADD18ROUNDEDRECTD18*%
%ADD19R,1.6000X1.6000*%
%ADD20C,1.6000*%
%ADD21C,4.2000*%
D16*
X425000Y150000D02*
D03*
Y170000D02*
D03*
Y190000D02*
D03*
X195000Y150000D02*
D03*
Y170000D02*
D03*
Y190000D02*
D03*
D17*
X450000Y255000D02*
D03*
X475400D02*
D03*
X170000D02*
D03*
X195400D02*
D03*
D18*
X424600D02*
D03*
X144600D02*
D03*
D19*
X423800Y265000D02*
D03*
X144600D02*
D03*
D20*
X449200D02*
D03*
X474600D02*
D03*
X170000D02*
D03*
X195400D02*
D03*
D21*
X470000Y140000D02*
D03*
X150000D02*
D03*
M02*
