G04*
G04 #@! TF.GenerationSoftware,Altium Limited,Altium Designer,24.4.1 (13)*
G04*
G04 Layer_Color=65535*
%FSLAX44Y44*%
%MOMM*%
G71*
G04*
G04 #@! TF.SameCoordinates,B4241BF7-B4BF-4A5F-9E04-4B0AE47491D2*
G04*
G04*
G04 #@! TF.FilePolarity,Positive*
G04*
G01*
G75*
%ADD10C,0.2000*%
%ADD11C,0.2540*%
%ADD12C,0.1700*%
G36*
X301601Y301147D02*
X302526Y301101D01*
X303545Y301009D01*
X304609Y300870D01*
X305581Y300685D01*
X306044Y300546D01*
X306460Y300407D01*
X306506D01*
X306553Y300361D01*
X306830Y300268D01*
X307201Y300083D01*
X307663Y299852D01*
X308219Y299528D01*
X308820Y299111D01*
X309376Y298602D01*
X309931Y298047D01*
X309977Y297954D01*
X310162Y297769D01*
X310394Y297399D01*
X310718Y296936D01*
X311042Y296381D01*
X311412Y295687D01*
X311736Y294900D01*
X312014Y294021D01*
X304470Y292679D01*
Y292725D01*
X304378Y292910D01*
X304239Y293188D01*
X304100Y293512D01*
X303869Y293836D01*
X303591Y294206D01*
X303221Y294530D01*
X302850Y294854D01*
X302804Y294900D01*
X302665Y294993D01*
X302388Y295085D01*
X302064Y295270D01*
X301647Y295409D01*
X301184Y295501D01*
X300629Y295594D01*
X299981Y295640D01*
X299750D01*
X299565Y295594D01*
X299102Y295548D01*
X298500Y295409D01*
X297852Y295224D01*
X297158Y294900D01*
X296464Y294437D01*
X295862Y293836D01*
X295816Y293743D01*
X295631Y293512D01*
X295399Y293049D01*
X295122Y292447D01*
X294798Y291660D01*
X294705Y291198D01*
X294566Y290688D01*
X294474Y290133D01*
X294381Y289532D01*
X294335Y288884D01*
Y288190D01*
Y288143D01*
Y288004D01*
Y287819D01*
X294381Y287542D01*
Y287171D01*
X294428Y286801D01*
X294520Y285922D01*
X294705Y284950D01*
X294983Y283978D01*
X295353Y283053D01*
X295585Y282682D01*
X295862Y282312D01*
X295955Y282220D01*
X296140Y282034D01*
X296510Y281757D01*
X297019Y281433D01*
X297621Y281109D01*
X298361Y280831D01*
X299241Y280646D01*
X300212Y280553D01*
X300675D01*
X300999Y280600D01*
X301416Y280646D01*
X301832Y280692D01*
X302712Y280924D01*
X302758D01*
X302943Y281016D01*
X303174Y281109D01*
X303498Y281248D01*
X303915Y281387D01*
X304378Y281618D01*
X304933Y281896D01*
X305488Y282220D01*
Y284626D01*
X300212D01*
Y289902D01*
X312338D01*
Y279072D01*
X312291Y279026D01*
X312199Y278980D01*
X312014Y278841D01*
X311736Y278702D01*
X311458Y278517D01*
X311088Y278286D01*
X310255Y277777D01*
X309283Y277268D01*
X308219Y276712D01*
X307154Y276203D01*
X306136Y275833D01*
X306090D01*
X305997Y275787D01*
X305858Y275741D01*
X305673Y275694D01*
X305396Y275648D01*
X305118Y275555D01*
X304748Y275509D01*
X304378Y275417D01*
X303452Y275278D01*
X302341Y275139D01*
X301138Y275046D01*
X299796Y275000D01*
X299380D01*
X299056Y275046D01*
X298639D01*
X298223Y275093D01*
X297714Y275139D01*
X297158Y275185D01*
X296001Y275370D01*
X294752Y275648D01*
X293548Y276018D01*
X292391Y276527D01*
X292345D01*
X292253Y276620D01*
X292114Y276712D01*
X291929Y276805D01*
X291420Y277175D01*
X290772Y277684D01*
X290077Y278286D01*
X289337Y279072D01*
X288643Y279998D01*
X287995Y281063D01*
Y281109D01*
X287949Y281201D01*
X287856Y281387D01*
X287764Y281618D01*
X287625Y281896D01*
X287532Y282220D01*
X287393Y282636D01*
X287254Y283099D01*
X287069Y283562D01*
X286931Y284117D01*
X286699Y285320D01*
X286514Y286662D01*
X286468Y288097D01*
Y288143D01*
Y288282D01*
Y288513D01*
X286514Y288791D01*
Y289161D01*
X286560Y289578D01*
X286607Y290041D01*
X286699Y290550D01*
X286884Y291660D01*
X287208Y292864D01*
X287625Y294067D01*
X288180Y295270D01*
Y295316D01*
X288273Y295409D01*
X288365Y295548D01*
X288504Y295779D01*
X288874Y296334D01*
X289429Y297029D01*
X290170Y297769D01*
X291003Y298556D01*
X292021Y299296D01*
X293178Y299944D01*
X293224D01*
X293317Y299991D01*
X293456Y300083D01*
X293641Y300129D01*
X293919Y300222D01*
X294242Y300361D01*
X294613Y300453D01*
X295029Y300592D01*
X295492Y300685D01*
X296047Y300777D01*
X296603Y300916D01*
X297204Y301009D01*
X297899Y301101D01*
X298593Y301147D01*
X300166Y301194D01*
X301231D01*
X301601Y301147D01*
D02*
G37*
G36*
X341308Y275417D02*
X333441D01*
Y285690D01*
X324833D01*
Y275417D01*
X317012Y275417D01*
Y300777D01*
X324833Y300777D01*
Y291938D01*
X333441D01*
Y300777D01*
X341308D01*
Y275417D01*
D02*
G37*
G36*
X368520Y294530D02*
X360514D01*
Y275417D01*
X352693D01*
Y294530D01*
X344686D01*
Y300777D01*
X368520D01*
Y294530D01*
D02*
G37*
G36*
X281840Y275417D02*
X273972D01*
Y300777D01*
X281840D01*
Y275417D01*
D02*
G37*
G36*
X257821Y281664D02*
X270085D01*
Y275417D01*
X250000D01*
Y300777D01*
X257821D01*
Y281664D01*
D02*
G37*
D10*
X455800Y275000D02*
X468800D01*
X455800Y255000D02*
X468800D01*
X411800Y257000D02*
Y273000D01*
X512800Y257000D02*
Y273000D01*
X176600Y275000D02*
X189600D01*
X176600Y255000D02*
X189600D01*
X132600Y257000D02*
Y273000D01*
X233600Y257000D02*
Y273000D01*
D11*
X177540Y292618D02*
X187697D01*
X182618Y297697D02*
Y287540D01*
X437540Y292540D02*
X447697D01*
D12*
X416501Y162999D02*
X414502D01*
X415502D01*
Y158001D01*
X414502Y157001D01*
X413502D01*
X412503Y158001D01*
X418501Y157001D02*
X420500D01*
X419500D01*
Y162999D01*
X418501Y161999D01*
X423499D02*
X424498Y162999D01*
X426498D01*
X427498Y161999D01*
Y158001D01*
X426498Y157001D01*
X424498D01*
X423499Y158001D01*
Y161999D01*
X419000Y182999D02*
X417001D01*
X418001D01*
Y178001D01*
X417001Y177001D01*
X416001D01*
X415002Y178001D01*
X424998Y182999D02*
X422999Y181999D01*
X421000Y180000D01*
Y178001D01*
X421999Y177001D01*
X423999D01*
X424998Y178001D01*
Y179000D01*
X423999Y180000D01*
X421000D01*
X419000Y202999D02*
X417001D01*
X418001D01*
Y198001D01*
X417001Y197001D01*
X416001D01*
X415002Y198001D01*
X424998Y197001D02*
X421000D01*
X424998Y201000D01*
Y201999D01*
X423999Y202999D01*
X421999D01*
X421000Y201999D01*
X476001Y217001D02*
Y222999D01*
X479000D01*
X480000Y221999D01*
Y220000D01*
X479000Y219000D01*
X476001D01*
X481999Y217001D02*
X483999D01*
X482999D01*
Y222999D01*
X481999Y221999D01*
X464004Y227001D02*
Y232999D01*
X467003D01*
X468002Y231999D01*
Y230000D01*
X467003Y229000D01*
X464004D01*
X470002Y232999D02*
Y227001D01*
X472001Y229000D01*
X474000Y227001D01*
Y232999D01*
X476000Y227001D02*
Y232999D01*
X477999Y231000D01*
X479998Y232999D01*
Y227001D01*
X485996D02*
X481998D01*
X485996Y231000D01*
Y231999D01*
X484997Y232999D01*
X482997D01*
X481998Y231999D01*
X194000Y162999D02*
X192001D01*
X193001D01*
Y158001D01*
X192001Y157001D01*
X191001D01*
X190002Y158001D01*
X196000D02*
X196999Y157001D01*
X198999D01*
X199998Y158001D01*
Y161999D01*
X198999Y162999D01*
X196999D01*
X196000Y161999D01*
Y161000D01*
X196999Y160000D01*
X199998D01*
X194000Y182999D02*
X192001D01*
X193001D01*
Y178001D01*
X192001Y177001D01*
X191001D01*
X190002Y178001D01*
X199998Y182999D02*
X196000D01*
Y180000D01*
X197999Y181000D01*
X198999D01*
X199998Y180000D01*
Y178001D01*
X198999Y177001D01*
X196999D01*
X196000Y178001D01*
X195000Y202999D02*
X193001D01*
X194000D01*
Y198001D01*
X193001Y197001D01*
X192001D01*
X191001Y198001D01*
X196999Y197001D02*
X198999D01*
X197999D01*
Y202999D01*
X196999Y201999D01*
X130002Y217001D02*
Y222999D01*
X133001D01*
X134000Y221999D01*
Y220000D01*
X133001Y219000D01*
X130002D01*
X139998Y217001D02*
X136000D01*
X139998Y221000D01*
Y221999D01*
X138999Y222999D01*
X136999D01*
X136000Y221999D01*
X130003Y227001D02*
Y232999D01*
X133002D01*
X134002Y231999D01*
Y230000D01*
X133002Y229000D01*
X130003D01*
X136001Y232999D02*
Y227001D01*
X138001Y229000D01*
X140000Y227001D01*
Y232999D01*
X141999Y227001D02*
Y232999D01*
X143999Y231000D01*
X145998Y232999D01*
Y227001D01*
X147997D02*
X149997D01*
X148997D01*
Y232999D01*
X147997Y231999D01*
M02*
